<?xml version="1.0" standalone="no"?>
<!DOCTYPE svg PUBLIC "-//W3C//DTD SVG 20010904//EN"
 "http://www.w3.org/TR/2001/REC-SVG-20010904/DTD/svg10.dtd">
<svg version="1.0" xmlns="http://www.w3.org/2000/svg"
 width="512.000000pt" height="512.000000pt" viewBox="0 0 512.000000 512.000000"
 preserveAspectRatio="xMidYMid meet">
<g transform="translate(0.000000,512.000000) scale(0.100000,-0.100000)"
fill="#000000" stroke="none">
<path d="M3795 4299 c-22 -23 -151 -102 -235 -145 -54 -27 -253 -148 -278
-169 -153 -125 -224 -216 -283 -360 -13 -31 -46 -175 -52 -222 -6 -50 8 -67
17 -21 12 61 108 239 164 306 67 79 130 139 155 147 9 4 17 10 17 15 0 10 161
93 200 103 14 4 26 7 27 8 15 7 92 26 96 23 2 -2 -6 -48 -19 -102 -34 -141
-45 -224 -45 -342 1 -126 4 -157 30 -235 l19 -60 2 65 c4 106 8 129 45 270 20
74 41 156 47 183 7 26 15 47 19 47 4 0 10 19 14 43 4 23 11 47 15 52 4 6 11
26 15 45 4 19 11 40 15 45 13 18 50 188 55 258 6 73 -3 83 -40 46z"/>
<path d="M3996 3878 c-10 -24 -21 -52 -26 -63 -36 -81 -37 -262 -4 -430 22
-115 50 -233 62 -265 3 -8 6 -19 7 -25 7 -29 38 -133 45 -155 5 -14 12 -38 14
-53 3 -15 12 -51 20 -80 8 -29 17 -65 20 -81 3 -16 10 -52 15 -80 45 -223 45
-403 1 -586 -22 -92 -23 -94 -70 -190 -54 -110 -107 -190 -124 -190 -15 0
-118 33 -133 43 -10 6 -7 16 10 40 12 18 25 34 29 37 13 11 87 167 103 220 9
30 22 65 28 77 6 13 8 25 5 29 -3 3 0 26 6 52 17 64 19 180 6 282 -15 122 -17
132 -62 269 -39 122 -58 165 -158 376 -28 59 -57 129 -63 156 l-13 49 -22 -23
c-12 -13 -22 -30 -22 -38 0 -8 -5 -20 -12 -27 -9 -9 -12 -78 -11 -256 1 -135
-2 -260 -6 -278 -5 -18 -14 -58 -21 -88 -7 -30 -25 -75 -39 -101 -29 -51 -99
-135 -106 -127 -3 3 2 22 12 44 38 88 61 213 61 338 0 130 -4 170 -44 371 -14
72 -28 141 -30 155 -3 14 -7 31 -9 38 -8 21 -19 163 -18 227 1 33 10 87 21
120 11 33 20 61 18 62 -9 9 -161 -57 -199 -87 -79 -63 -197 -210 -197 -246 0
-7 -4 -14 -8 -16 -5 -1 -23 -41 -42 -88 -18 -47 -37 -89 -42 -94 -4 -6 -8 -20
-8 -32 0 -13 -4 -26 -10 -29 -5 -3 -10 -13 -10 -22 0 -8 -7 -31 -16 -51 -9
-21 -19 -46 -24 -57 -4 -11 -27 -59 -50 -107 -43 -86 -67 -115 -50 -60 48 155
36 338 -27 434 l-28 41 -8 -44 c-10 -51 -92 -179 -163 -254 -55 -58 -204 -233
-219 -257 -5 -8 -31 -47 -57 -86 -27 -39 -48 -73 -48 -76 0 -3 -13 -33 -29
-67 l-29 -63 -63 -13 c-35 -7 -64 -11 -66 -10 -3 4 15 75 26 102 45 109 134
253 216 352 22 26 65 76 95 112 169 200 218 289 225 408 2 47 0 49 -20 31 -7
-7 -41 -38 -75 -68 -137 -120 -188 -168 -255 -235 -77 -77 -185 -208 -185
-224 0 -5 -6 -14 -14 -18 -18 -10 -97 -170 -125 -252 -22 -65 -28 -98 -36
-206 -3 -33 -9 -61 -14 -63 -9 -3 -20 -11 -100 -80 -24 -20 -77 -82 -117 -137
-41 -55 -77 -105 -82 -110 -5 -6 -25 -36 -45 -67 -56 -89 -182 -212 -252 -246
-201 -101 -347 -104 -465 -11 -63 50 -89 103 -90 180 0 99 48 173 135 210 l30
13 -33 4 c-56 6 -139 -25 -189 -71 -166 -153 -162 -458 8 -612 97 -87 183
-126 370 -167 94 -20 131 -22 379 -22 279 0 288 1 505 46 180 37 410 142 514
235 l61 55 61 -55 c104 -93 334 -198 514 -235 217 -45 226 -46 505 -46 248 0
285 2 379 22 187 41 273 80 370 167 162 147 175 437 25 595 -32 34 -33 37 -26
90 8 64 8 213 -1 286 -11 84 -50 274 -64 314 -3 8 -8 23 -9 32 -8 38 -117 354
-126 366 -6 6 -7 12 -3 12 4 0 3 6 -3 13 -18 23 -139 402 -157 492 -12 62 -16
116 -13 177 3 49 5 88 4 88 -1 0 -10 -19 -20 -42z m-836 -1184 c23 -85 36
-289 21 -299 -9 -5 -88 21 -103 34 -4 4 0 33 8 65 8 32 13 60 11 63 -3 2 -1
19 4 36 5 18 12 64 15 102 10 112 15 112 44 -1z m-220 -224 c0 -5 -5 -10 -11
-10 -5 0 -7 5 -4 10 3 6 8 10 11 10 2 0 4 -4 4 -10z m1390 -636 c-13 -38 -65
-104 -83 -104 -5 0 -3 8 6 18 13 15 50 89 73 147 7 19 8 19 11 -3 3 -12 -1
-38 -7 -58z"/>
<path d="M3872 3837 c-30 -32 -78 -133 -96 -204 -22 -85 -16 -237 14 -323 25
-74 67 -150 82 -150 13 0 3 165 -16 264 -24 123 -10 303 31 394 18 42 13 49
-15 19z"/>
</g>
</svg>
